<svg width="29" height="30" viewBox="0 0 29 30" fill="none" xmlns="http://www.w3.org/2000/svg">
<path d="M14.2254 7.70726C10.1896 7.70726 6.93423 10.9633 6.93423 15.0001C6.93423 19.0368 10.1896 22.2928 14.2254 22.2928C18.2612 22.2928 21.5166 19.0368 21.5166 15.0001C21.5166 10.9633 18.2612 7.70726 14.2254 7.70726ZM14.2254 19.7413C11.6173 19.7413 9.48518 17.6151 9.48518 15.0001C9.48518 12.3851 11.611 10.2588 14.2254 10.2588C16.8398 10.2588 18.9656 12.3851 18.9656 15.0001C18.9656 17.6151 16.8335 19.7413 14.2254 19.7413ZM23.5155 7.40895C23.5155 8.35466 22.754 9.10996 21.8148 9.10996C20.8693 9.10996 20.1142 8.34831 20.1142 7.40895C20.1142 6.46958 20.8757 5.70793 21.8148 5.70793C22.754 5.70793 23.5155 6.46958 23.5155 7.40895ZM28.3445 9.13535C28.2366 6.85675 27.7163 4.83838 26.0474 3.17544C24.3848 1.51251 22.3669 0.992046 20.0888 0.877799C17.7409 0.74451 10.7036 0.74451 8.35565 0.877799C6.08391 0.985699 4.06599 1.50616 2.39708 3.16909C0.728165 4.83203 0.214166 6.8504 0.0999442 9.129C-0.0333147 11.4774 -0.0333147 18.5163 0.0999442 20.8648C0.207821 23.1434 0.728165 25.1617 2.39708 26.8247C4.06599 28.4876 6.07756 29.0081 8.35565 29.1223C10.7036 29.2556 17.7409 29.2556 20.0888 29.1223C22.3669 29.0144 24.3848 28.4939 26.0474 26.8247C27.7099 25.1617 28.2303 23.1434 28.3445 20.8648C28.4778 18.5163 28.4778 11.4838 28.3445 9.13535ZM25.3113 23.3845C24.8163 24.6286 23.8581 25.587 22.608 26.0884C20.736 26.831 16.2941 26.6596 14.2254 26.6596C12.1567 26.6596 7.7084 26.8247 5.84277 26.0884C4.59902 25.5933 3.64083 24.6349 3.13952 23.3845C2.39708 21.5122 2.56841 17.0692 2.56841 15.0001C2.56841 12.9309 2.40342 8.4816 3.13952 6.61556C3.63448 5.37153 4.59268 4.41312 5.84277 3.9117C7.71474 3.16909 12.1567 3.34047 14.2254 3.34047C16.2941 3.34047 20.7424 3.17544 22.608 3.9117C23.8518 4.40678 24.81 5.36518 25.3113 6.61556C26.0537 8.48795 25.8824 12.9309 25.8824 15.0001C25.8824 17.0692 26.0537 21.5185 25.3113 23.3845Z" fill="black"/>
</svg>
