<svg width="27" height="30" viewBox="0 0 27 30" fill="none" xmlns="http://www.w3.org/2000/svg">
<path d="M26.7778 12.3025C24.1564 12.3087 21.5994 11.504 19.4679 10.0021V20.4767C19.4672 22.4167 18.8648 24.3102 17.7412 25.9041C16.6177 27.498 15.0266 28.7163 13.1807 29.396C11.3348 30.0758 9.32203 30.1846 7.41158 29.708C5.50113 29.2313 3.78404 28.1919 2.48992 26.7288C1.19579 25.2656 0.386309 23.4484 0.169715 21.5201C-0.0468779 19.5919 0.339739 17.6445 1.27787 15.9384C2.216 14.2323 3.66093 12.8487 5.41945 11.9728C7.17797 11.0968 9.16625 10.7702 11.1184 11.0366V16.3049C10.2251 16.0283 9.26585 16.0366 8.37762 16.3287C7.48939 16.6208 6.71763 17.1816 6.17254 17.9312C5.62746 18.6808 5.33693 19.5807 5.34245 20.5025C5.34796 21.4243 5.64924 22.3208 6.20326 23.064C6.75727 23.8072 7.53569 24.3591 8.42736 24.6409C9.31902 24.9226 10.2783 24.9198 11.1683 24.6329C12.0582 24.3459 12.8333 23.7895 13.3829 23.0431C13.9324 22.2967 14.2283 21.3985 14.2283 20.4767V0H19.4679C19.4643 0.435544 19.5013 0.870494 19.5786 1.29935C19.7607 2.25671 20.1393 3.16745 20.6912 3.97585C21.2431 4.78425 21.9568 5.47333 22.7885 6.00093C23.9718 6.7711 25.3592 7.1816 26.7778 7.18131V12.3025Z" fill="black"/>
</svg>
