<svg width="33" height="28" viewBox="0 0 33 28" fill="none" xmlns="http://www.w3.org/2000/svg">
<path d="M28.8219 7.31244C28.8422 7.60409 28.8422 7.8958 28.8422 8.18746C28.8422 17.0833 22.2432 27.3333 10.1822 27.3333C6.46648 27.3333 3.01472 26.2291 0.111145 24.3125C0.639085 24.375 1.14665 24.3958 1.6949 24.3958C4.76085 24.3958 7.58324 23.3333 9.83706 21.5208C6.9538 21.4583 4.53754 19.5208 3.70503 16.8541C4.11116 16.9166 4.51722 16.9583 4.94366 16.9583C5.53248 16.9583 6.12136 16.8749 6.66955 16.7291C3.66447 16.1041 1.41059 13.3958 1.41059 10.1249V10.0416C2.28365 10.5416 3.29897 10.8541 4.37504 10.8958C2.60853 9.6874 1.45121 7.62493 1.45121 5.29158C1.45121 4.0416 1.77603 2.89577 2.34459 1.89576C5.57304 5.97909 10.4259 8.64571 15.8675 8.93743C15.766 8.43743 15.705 7.91665 15.705 7.3958C15.705 3.68743 18.6289 0.666626 22.2634 0.666626C24.1517 0.666626 25.8573 1.47912 27.0553 2.79163C28.5375 2.49997 29.9588 1.93744 31.2178 1.16663C30.7304 2.72916 29.6949 4.04167 28.3345 4.87494C29.6543 4.72918 30.9335 4.3541 32.1111 3.83332C31.2179 5.16659 30.1011 6.35405 28.8219 7.31244Z" fill="black"/>
</svg>
